<svg width="24" height="28" viewBox="0 0 24 28" fill="none" xmlns="http://www.w3.org/2000/svg">
<path d="M24 20.6665H22.3747L21.3333 16.5025V11.3332C21.3307 9.09071 20.5208 6.92415 19.0518 5.22987C17.5827 3.53559 15.5528 2.42685 13.3333 2.1065V0.666504H10.6667V2.1065C8.4472 2.42685 6.41727 3.53559 4.94824 5.22987C3.47921 6.92415 2.66929 9.09071 2.66667 11.3332V16.5025L1.62533 20.6665H0V23.3332H6.856C7.14703 24.4766 7.81074 25.4905 8.74229 26.2146C9.67383 26.9388 10.8201 27.3319 12 27.3319C13.1799 27.3319 14.3262 26.9388 15.2577 26.2146C16.1893 25.4905 16.853 24.4766 17.144 23.3332H24V20.6665ZM5.29333 16.9905L5.33333 11.3332C5.33333 9.56506 6.03571 7.86937 7.28595 6.61913C8.5362 5.36888 10.2319 4.6665 12 4.6665C13.7681 4.6665 15.4638 5.36888 16.714 6.61913C17.9643 7.86937 18.6667 9.56506 18.6667 11.3332V16.6665L19.6373 20.6665H4.37467L5.29333 16.9905ZM12 24.6665C11.534 24.6651 11.0765 24.5412 10.6735 24.3071C10.2706 24.0731 9.93619 23.7372 9.704 23.3332H14.296C14.0638 23.7372 13.7294 24.0731 13.3265 24.3071C12.9235 24.5412 12.466 24.6651 12 24.6665Z" fill="#ab6d23"/>
</svg>
