<svg width="26" height="26" viewBox="0 0 26 26" fill="none" xmlns="http://www.w3.org/2000/svg">
<circle cx="13" cy="13" r="13" fill="#C6EBD9"/>
<path d="M19.9588 10.1569L13.4993 15.7359L7.03984 10.1569C6.92443 10.0571 6.7695 10.0011 6.60817 10.0011C6.44684 10.0011 6.29191 10.0571 6.1765 10.1569C6.12062 10.2055 6.07623 10.2634 6.04592 10.3273C6.01561 10.3912 6 10.4598 6 10.5291C6 10.5984 6.01561 10.667 6.04592 10.7309C6.07623 10.7948 6.12062 10.8527 6.1765 10.9013L13.0483 16.8375C13.169 16.9417 13.3308 17 13.4993 17C13.6679 17 13.8297 16.9417 13.9504 16.8375L20.8222 10.9024C20.8785 10.8539 20.9232 10.7958 20.9537 10.7317C20.9843 10.6676 21 10.5987 21 10.5291C21 10.4595 20.9843 10.3906 20.9537 10.3265C20.9232 10.2624 20.8785 10.2043 20.8222 10.1558C20.7068 10.0559 20.5518 10 20.3905 10C20.2292 10 20.0743 10.0559 19.9588 10.1558V10.1569Z" fill="white"/>
</svg>
