<svg width="11" height="13" viewBox="0 0 11 13" fill="none" xmlns="http://www.w3.org/2000/svg">
<path d="M0 11.7812C0 12.4541 0.527902 13 1.17857 13H9.82143C10.4721 13 11 12.4541 11 11.7812V4.875H0V11.7812ZM7.85714 6.80469C7.85714 6.63711 7.98973 6.5 8.15179 6.5H9.13393C9.29598 6.5 9.42857 6.63711 9.42857 6.80469V7.82031C9.42857 7.98789 9.29598 8.125 9.13393 8.125H8.15179C7.98973 8.125 7.85714 7.98789 7.85714 7.82031V6.80469ZM7.85714 10.0547C7.85714 9.88711 7.98973 9.75 8.15179 9.75H9.13393C9.29598 9.75 9.42857 9.88711 9.42857 10.0547V11.0703C9.42857 11.2379 9.29598 11.375 9.13393 11.375H8.15179C7.98973 11.375 7.85714 11.2379 7.85714 11.0703V10.0547ZM4.71429 6.80469C4.71429 6.63711 4.84687 6.5 5.00893 6.5H5.99107C6.15312 6.5 6.28571 6.63711 6.28571 6.80469V7.82031C6.28571 7.98789 6.15312 8.125 5.99107 8.125H5.00893C4.84687 8.125 4.71429 7.98789 4.71429 7.82031V6.80469ZM4.71429 10.0547C4.71429 9.88711 4.84687 9.75 5.00893 9.75H5.99107C6.15312 9.75 6.28571 9.88711 6.28571 10.0547V11.0703C6.28571 11.2379 6.15312 11.375 5.99107 11.375H5.00893C4.84687 11.375 4.71429 11.2379 4.71429 11.0703V10.0547ZM1.57143 6.80469C1.57143 6.63711 1.70402 6.5 1.86607 6.5H2.84821C3.01027 6.5 3.14286 6.63711 3.14286 6.80469V7.82031C3.14286 7.98789 3.01027 8.125 2.84821 8.125H1.86607C1.70402 8.125 1.57143 7.98789 1.57143 7.82031V6.80469ZM1.57143 10.0547C1.57143 9.88711 1.70402 9.75 1.86607 9.75H2.84821C3.01027 9.75 3.14286 9.88711 3.14286 10.0547V11.0703C3.14286 11.2379 3.01027 11.375 2.84821 11.375H1.86607C1.70402 11.375 1.57143 11.2379 1.57143 11.0703V10.0547ZM9.82143 1.625H8.64286V0.40625C8.64286 0.182812 8.46607 0 8.25 0H7.46429C7.24821 0 7.07143 0.182812 7.07143 0.40625V1.625H3.92857V0.40625C3.92857 0.182812 3.75179 0 3.53571 0H2.75C2.53393 0 2.35714 0.182812 2.35714 0.40625V1.625H1.17857C0.527902 1.625 0 2.1709 0 2.84375V4.0625H11V2.84375C11 2.1709 10.4721 1.625 9.82143 1.625Z" fill="#ab6d23"/>
</svg>
