<svg width="25" height="25" viewBox="0 0 25 25" fill="none" xmlns="http://www.w3.org/2000/svg">
<rect width="25" height="25" rx="12.5" fill="#D92C2C"/>
<path d="M12.8125 8.4375C12.8125 8.18886 12.7137 7.9504 12.5379 7.77459C12.3621 7.59877 12.1236 7.5 11.875 7.5C11.6264 7.5 11.3879 7.59877 11.2121 7.77459C11.0363 7.9504 10.9375 8.18886 10.9375 8.4375H12.8125ZM10.3125 8.4375C10.3125 8.0231 10.4771 7.62567 10.7701 7.33265C11.0632 7.03962 11.4606 6.875 11.875 6.875C12.2894 6.875 12.6868 7.03962 12.9799 7.33265C13.2729 7.62567 13.4375 8.0231 13.4375 8.4375H16.5625C16.6454 8.4375 16.7249 8.47042 16.7835 8.52903C16.8421 8.58763 16.875 8.66712 16.875 8.75C16.875 8.83288 16.8421 8.91237 16.7835 8.97097C16.7249 9.02958 16.6454 9.0625 16.5625 9.0625H15.9037L15.6006 11.685C15.399 11.6296 15.1927 11.5928 14.9844 11.575L15.275 9.0625H8.47562L9.21313 15.4562C9.24839 15.7609 9.3944 16.0419 9.62339 16.2459C9.85237 16.4499 10.1483 16.5625 10.455 16.5625H11.625C11.7394 16.7863 11.8775 16.9956 12.0356 17.1875H10.455C9.99497 17.1875 9.55101 17.0183 9.20759 16.7122C8.86416 16.4061 8.64525 15.9845 8.5925 15.5275L7.84625 9.0625H7.1875C7.10462 9.0625 7.02513 9.02958 6.96653 8.97097C6.90792 8.91237 6.875 8.83288 6.875 8.75C6.875 8.66712 6.90792 8.58763 6.96653 8.52903C7.02513 8.47042 7.10462 8.4375 7.1875 8.4375H10.3125ZM17.5 15C17.5 15.7459 17.2037 16.4613 16.6762 16.9887C16.1488 17.5162 15.4334 17.8125 14.6875 17.8125C13.9416 17.8125 13.2262 17.5162 12.6988 16.9887C12.1713 16.4613 11.875 15.7459 11.875 15C11.875 14.2541 12.1713 13.5387 12.6988 13.0113C13.2262 12.4838 13.9416 12.1875 14.6875 12.1875C15.4334 12.1875 16.1488 12.4838 16.6762 13.0113C17.2037 13.5387 17.5 14.2541 17.5 15ZM15.8463 14.2838C15.9049 14.2251 15.9379 14.1455 15.9379 14.0625C15.9379 13.9795 15.9049 13.8999 15.8463 13.8412C15.7876 13.7826 15.708 13.7496 15.625 13.7496C15.542 13.7496 15.4624 13.7826 15.4037 13.8412L14.6875 14.5581L13.9713 13.8412C13.9126 13.7826 13.833 13.7496 13.75 13.7496C13.667 13.7496 13.5874 13.7826 13.5287 13.8412C13.4701 13.8999 13.4371 13.9795 13.4371 14.0625C13.4371 14.1455 13.4701 14.2251 13.5287 14.2838L14.2456 15L13.5287 15.7162C13.4997 15.7453 13.4766 15.7798 13.4609 15.8178C13.4452 15.8557 13.4371 15.8964 13.4371 15.9375C13.4371 15.9786 13.4452 16.0193 13.4609 16.0572C13.4766 16.0952 13.4997 16.1297 13.5287 16.1588C13.5578 16.1878 13.5923 16.2109 13.6303 16.2266C13.6682 16.2423 13.7089 16.2504 13.75 16.2504C13.7911 16.2504 13.8318 16.2423 13.8697 16.2266C13.9077 16.2109 13.9422 16.1878 13.9713 16.1588L14.6875 15.4419L15.4037 16.1588C15.4328 16.1878 15.4673 16.2109 15.5053 16.2266C15.5432 16.2423 15.5839 16.2504 15.625 16.2504C15.6661 16.2504 15.7068 16.2423 15.7447 16.2266C15.7827 16.2109 15.8172 16.1878 15.8463 16.1588C15.8753 16.1297 15.8984 16.0952 15.9141 16.0572C15.9298 16.0193 15.9379 15.9786 15.9379 15.9375C15.9379 15.8964 15.9298 15.8557 15.9141 15.8178C15.8984 15.7798 15.8753 15.7453 15.8463 15.7162L15.1294 15L15.8463 14.2838Z" fill="white"/>
</svg>
