<svg width="40" height="40" viewBox="0 0 40 40" fill="none" xmlns="http://www.w3.org/2000/svg">
<path d="M20 40C25.3043 40 30.3914 37.8929 34.1421 34.1421C37.8929 30.3914 40 25.3043 40 20C40 14.6957 37.8929 9.60859 34.1421 5.85786C30.3914 2.10714 25.3043 0 20 0C14.6957 0 9.60859 2.10714 5.85786 5.85786C2.10714 9.60859 0 14.6957 0 20C0 25.3043 2.10714 30.3914 5.85786 34.1421C9.60859 37.8929 14.6957 40 20 40ZM8.75 12.5H31.25C31.5815 12.5 31.8995 12.6317 32.1339 12.8661C32.3683 13.1005 32.5 13.4185 32.5 13.75C32.5 14.0815 32.3683 14.3995 32.1339 14.6339C31.8995 14.8683 31.5815 15 31.25 15H8.75C8.41848 15 8.10054 14.8683 7.86612 14.6339C7.6317 14.3995 7.5 14.0815 7.5 13.75C7.5 13.4185 7.6317 13.1005 7.86612 12.8661C8.10054 12.6317 8.41848 12.5 8.75 12.5ZM12.5 21.25C12.5 20.9185 12.6317 20.6005 12.8661 20.3661C13.1005 20.1317 13.4185 20 13.75 20H26.25C26.5815 20 26.8995 20.1317 27.1339 20.3661C27.3683 20.6005 27.5 20.9185 27.5 21.25C27.5 21.5815 27.3683 21.8995 27.1339 22.1339C26.8995 22.3683 26.5815 22.5 26.25 22.5H13.75C13.4185 22.5 13.1005 22.3683 12.8661 22.1339C12.6317 21.8995 12.5 21.5815 12.5 21.25ZM17.5 28.75C17.5 28.4185 17.6317 28.1005 17.8661 27.8661C18.1005 27.6317 18.4185 27.5 18.75 27.5H21.25C21.5815 27.5 21.8995 27.6317 22.1339 27.8661C22.3683 28.1005 22.5 28.4185 22.5 28.75C22.5 29.0815 22.3683 29.3995 22.1339 29.6339C21.8995 29.8683 21.5815 30 21.25 30H18.75C18.4185 30 18.1005 29.8683 17.8661 29.6339C17.6317 29.3995 17.5 29.0815 17.5 28.75Z" fill="#6E6E6E"/>
</svg>
