<svg width="48" height="48" viewBox="0 0 48 48" fill="none" xmlns="http://www.w3.org/2000/svg">
<g filter="url(#filter0_d_1889_16327)">
<circle cx="24" cy="24" r="19.5" stroke="#6E6E6E" shape-rendering="crispEdges"/>
</g>
<path d="M33.7057 18.0002C33.5273 17.7009 33.2717 17.4514 32.964 17.2762C32.6563 17.1009 32.3069 17.0059 31.95 17.0003H18.7302L18.1312 14.7405C18.0707 14.5224 17.9356 14.3305 17.7481 14.1961C17.5606 14.0618 17.3316 13.9929 17.0984 14.0006H15.0328C14.7589 14.0006 14.4962 14.1059 14.3025 14.2935C14.1088 14.481 14 14.7353 14 15.0005C14 15.2657 14.1088 15.52 14.3025 15.7075C14.4962 15.8951 14.7589 16.0004 15.0328 16.0004H16.3135L19.164 26.2595C19.2245 26.4776 19.3595 26.6695 19.5471 26.8039C19.7346 26.9382 19.9636 27.0071 20.1968 26.9994H29.4919C29.6827 26.9989 29.8695 26.9472 30.0317 26.8501C30.194 26.753 30.3253 26.6144 30.4111 26.4495L33.7987 19.8901C33.9455 19.5921 34.0139 19.2636 33.9977 18.9338C33.9814 18.6041 33.8812 18.2833 33.7057 18.0002Z" fill="#6E6E6E"/>
<path d="M19.5 33C20.3284 33 21 32.3284 21 31.5C21 30.6716 20.3284 30 19.5 30C18.6716 30 18 30.6716 18 31.5C18 32.3284 18.6716 33 19.5 33Z" fill="#6E6E6E"/>
<path d="M30.5 33C31.3284 33 32 32.3284 32 31.5C32 30.6716 31.3284 30 30.5 30C29.6716 30 29 30.6716 29 31.5C29 32.3284 29.6716 33 30.5 33Z" fill="#6E6E6E"/>
<defs>
<filter id="filter0_d_1889_16327" x="0" y="0" width="48" height="48" filterUnits="userSpaceOnUse" color-interpolation-filters="sRGB">
<feFlood flood-opacity="0" result="BackgroundImageFix"/>
<feColorMatrix in="SourceAlpha" type="matrix" values="0 0 0 0 0 0 0 0 0 0 0 0 0 0 0 0 0 0 127 0" result="hardAlpha"/>
<feOffset/>
<feGaussianBlur stdDeviation="2"/>
<feComposite in2="hardAlpha" operator="out"/>
<feColorMatrix type="matrix" values="0 0 0 0 0 0 0 0 0 0 0 0 0 0 0 0 0 0 0.25 0"/>
<feBlend mode="normal" in2="BackgroundImageFix" result="effect1_dropShadow_1889_16327"/>
<feBlend mode="normal" in="SourceGraphic" in2="effect1_dropShadow_1889_16327" result="shape"/>
</filter>
</defs>
</svg>
