<svg width="32" height="31" viewBox="0 0 32 31" fill="none" xmlns="http://www.w3.org/2000/svg">
<g filter="url(#filter0_d_1889_16318)">
<ellipse cx="15.918" cy="15.5" rx="11.5723" ry="11.5" fill="white"/>
<path d="M26.9904 15.5C26.9904 21.5722 22.0361 26.5 15.918 26.5C9.79999 26.5 4.8457 21.5722 4.8457 15.5C4.8457 9.42782 9.79999 4.5 15.918 4.5C22.0361 4.5 26.9904 9.42782 26.9904 15.5Z" stroke="#6E6E6E"/>
</g>
<path d="M13.7024 11.3398C12.3428 11.3398 11.2402 12.4243 11.2402 13.7622C11.2402 14.8422 11.6711 17.4055 15.9125 19.9967C15.9885 20.0426 16.0757 20.0669 16.1646 20.0669C16.2536 20.0669 16.3408 20.0426 16.4168 19.9967C20.6581 17.4055 21.089 14.8422 21.089 13.7622C21.089 12.4243 19.9865 11.3398 18.6268 11.3398C17.2672 11.3398 16.1646 12.8079 16.1646 12.8079C16.1646 12.8079 15.0621 11.3398 13.7024 11.3398Z" fill="#6E6E6E"/>
<defs>
<filter id="filter0_d_1889_16318" x="0.345703" y="0" width="31.1445" height="31" filterUnits="userSpaceOnUse" color-interpolation-filters="sRGB">
<feFlood flood-opacity="0" result="BackgroundImageFix"/>
<feColorMatrix in="SourceAlpha" type="matrix" values="0 0 0 0 0 0 0 0 0 0 0 0 0 0 0 0 0 0 127 0" result="hardAlpha"/>
<feOffset/>
<feGaussianBlur stdDeviation="2"/>
<feComposite in2="hardAlpha" operator="out"/>
<feColorMatrix type="matrix" values="0 0 0 0 0 0 0 0 0 0 0 0 0 0 0 0 0 0 0.25 0"/>
<feBlend mode="normal" in2="BackgroundImageFix" result="effect1_dropShadow_1889_16318"/>
<feBlend mode="normal" in="SourceGraphic" in2="effect1_dropShadow_1889_16318" result="shape"/>
</filter>
</defs>
</svg>
