<svg width="48" height="48" viewBox="0 0 48 48" fill="none" xmlns="http://www.w3.org/2000/svg">
<g filter="url(#filter0_d_749_15666)">
<circle cx="24" cy="24" r="20" fill="#6E6E6E"/>
</g>
<path fill-rule="evenodd" clip-rule="evenodd" d="M19.5003 17C19.6329 17 19.7601 17.0527 19.8538 17.1464C19.9476 17.2402 20.0003 17.3674 20.0003 17.5V29.2921L23.1461 26.1454C23.2399 26.0515 23.3673 25.9987 23.5 25.9987C23.6328 25.9987 23.7601 26.0515 23.854 26.1454C23.9479 26.2392 24.0006 26.3666 24.0006 26.4993C24.0006 26.6321 23.9479 26.7594 23.854 26.8533L19.8543 30.853C19.8079 30.8996 19.7527 30.9365 19.6919 30.9617C19.6312 30.9869 19.5661 30.9999 19.5003 30.9999C19.4346 30.9999 19.3694 30.9869 19.3087 30.9617C19.248 30.9365 19.1928 30.8996 19.1463 30.853L15.1466 26.8533C15.0527 26.7594 15 26.6321 15 26.4993C15 26.3666 15.0527 26.2392 15.1466 26.1454C15.2405 26.0515 15.3678 25.9987 15.5006 25.9987C15.6334 25.9987 15.7607 26.0515 15.8546 26.1454L19.0004 29.2921V17.5C19.0004 17.3674 19.053 17.2402 19.1468 17.1464C19.2406 17.0527 19.3677 17 19.5003 17Z" fill="white"/>
<path fill-rule="evenodd" clip-rule="evenodd" d="M28.2985 31C28.1659 31 28.0387 30.9473 27.945 30.8536C27.8512 30.7598 27.7985 30.6326 27.7985 30.5L27.7985 18.7079L24.6528 21.8546C24.5589 21.9485 24.4316 22.0013 24.2988 22.0013C24.166 22.0013 24.0387 21.9485 23.9448 21.8546C23.8509 21.7608 23.7982 21.6334 23.7982 21.5007C23.7982 21.3679 23.8509 21.2406 23.9448 21.1467L27.9445 17.147C27.991 17.1004 28.0461 17.0635 28.1069 17.0383C28.1676 17.0131 28.2327 17.0001 28.2985 17.0001C28.3643 17.0001 28.4294 17.0131 28.4901 17.0383C28.5509 17.0635 28.606 17.1004 28.6525 17.147L32.6522 21.1467C32.7461 21.2406 32.7988 21.3679 32.7988 21.5007C32.7988 21.6334 32.7461 21.7608 32.6522 21.8546C32.5583 21.9485 32.431 22.0013 32.2982 22.0013C32.1655 22.0013 32.0381 21.9485 31.9443 21.8546L28.7985 18.7079L28.7985 30.5C28.7985 30.6326 28.7458 30.7598 28.652 30.8536C28.5583 30.9473 28.4311 31 28.2985 31Z" fill="white"/>
<defs>
<filter id="filter0_d_749_15666" x="0" y="0" width="48" height="48" filterUnits="userSpaceOnUse" color-interpolation-filters="sRGB">
<feFlood flood-opacity="0" result="BackgroundImageFix"/>
<feColorMatrix in="SourceAlpha" type="matrix" values="0 0 0 0 0 0 0 0 0 0 0 0 0 0 0 0 0 0 127 0" result="hardAlpha"/>
<feOffset/>
<feGaussianBlur stdDeviation="2"/>
<feComposite in2="hardAlpha" operator="out"/>
<feColorMatrix type="matrix" values="0 0 0 0 0 0 0 0 0 0 0 0 0 0 0 0 0 0 0.25 0"/>
<feBlend mode="normal" in2="BackgroundImageFix" result="effect1_dropShadow_749_15666"/>
<feBlend mode="normal" in="SourceGraphic" in2="effect1_dropShadow_749_15666" result="shape"/>
</filter>
</defs>
</svg>
