<svg width="25" height="25" viewBox="0 0 25 25" fill="none" xmlns="http://www.w3.org/2000/svg">
<rect width="25" height="25" rx="12.5" fill="#ab6d23"/>
<path d="M17.56 16.955H7.44C7.19662 16.955 7 17.1516 7 17.395V17.89C7 17.9505 7.0495 18 7.11 18H17.89C17.9505 18 18 17.9505 18 17.89V17.395C18 17.1516 17.8034 16.955 17.56 16.955ZM9.00338 15.8C9.03088 15.8 9.05838 15.7972 9.08588 15.7931L11.3986 15.3875C11.4261 15.382 11.4523 15.3696 11.4715 15.349L17.3001 9.52037C17.3129 9.50765 17.323 9.49254 17.3299 9.47591C17.3368 9.45928 17.3403 9.44145 17.3403 9.42344C17.3403 9.40543 17.3368 9.3876 17.3299 9.37096C17.323 9.35433 17.3129 9.33922 17.3001 9.3265L15.0149 7.03988C14.9888 7.01375 14.9544 7 14.9172 7C14.8801 7 14.8458 7.01375 14.8196 7.03988L8.991 12.8685C8.97037 12.8891 8.958 12.9139 8.9525 12.9414L8.54688 15.2541C8.5335 15.3278 8.53828 15.4036 8.5608 15.475C8.58332 15.5464 8.6229 15.6112 8.67612 15.6639C8.76687 15.7519 8.881 15.8 9.00338 15.8Z" fill="white"/>
</svg>
