<svg width="40" height="40" viewBox="0 0 40 40" fill="none" xmlns="http://www.w3.org/2000/svg">
<rect x="0.5" y="0.5" width="39" height="39" rx="19.5" fill="white" stroke="#ab6d23"/>
<path d="M22.3317 9H14.8333C14.0819 9 13.3612 9.28973 12.8299 9.80546C12.2985 10.3212 12 11.0207 12 11.75V28.25C12 28.9793 12.2985 29.6788 12.8299 30.1945C13.3612 30.7103 14.0819 31 14.8333 31H26.1667C26.9181 31 27.6388 30.7103 28.1701 30.1945C28.7015 29.6788 29 28.9793 29 28.25V15.4721C28.9999 15.1075 28.8506 14.7578 28.5849 14.5L23.3333 9.40288C23.0677 9.14499 22.7074 9.00008 22.3317 9V9ZM22.625 13.8125V11.0625L26.875 15.1875H24.0417C23.6659 15.1875 23.3056 15.0426 23.0399 14.7848C22.7743 14.5269 22.625 14.1772 22.625 13.8125ZM17.5023 18.185L20.5 21.6761L23.4977 18.1836C23.6181 18.0436 23.7909 17.9557 23.9781 17.9393C24.1652 17.923 24.3514 17.9794 24.4957 18.0963C24.64 18.2132 24.7305 18.3809 24.7474 18.5626C24.7643 18.7442 24.7061 18.925 24.5857 19.065L21.4222 22.75L24.5857 26.435C24.7006 26.5756 24.7543 26.7542 24.7354 26.9328C24.7164 27.1113 24.6263 27.2756 24.4842 27.3905C24.3422 27.5054 24.1595 27.5618 23.9751 27.5477C23.7908 27.5336 23.6194 27.4501 23.4977 27.315L20.5 23.8239L17.5023 27.3164C17.3819 27.4564 17.2091 27.5443 17.0219 27.5607C16.8348 27.577 16.6486 27.5206 16.5043 27.4037C16.36 27.2868 16.2695 27.1191 16.2526 26.9374C16.2357 26.7558 16.2939 26.575 16.4143 26.435L19.5777 22.75L16.4143 19.065C16.3521 18.996 16.3048 18.9156 16.2751 18.8286C16.2454 18.7416 16.2339 18.6497 16.2413 18.5583C16.2487 18.4669 16.2749 18.3779 16.3183 18.2965C16.3617 18.215 16.4214 18.1429 16.494 18.0842C16.5665 18.0255 16.6505 17.9815 16.7408 17.9547C16.8311 17.928 16.9261 17.919 17.02 17.9284C17.114 17.9378 17.2051 17.9654 17.2879 18.0094C17.3707 18.0535 17.4436 18.1132 17.5023 18.185Z" fill="#ab6d23"/>
</svg>
