<svg width="40" height="40" viewBox="0 0 40 40" fill="none" xmlns="http://www.w3.org/2000/svg">
<rect x="0.5" y="0.5" width="39" height="39" rx="19.5" fill="white" stroke="#ab6d23"/>
<path d="M29.103 17.998C29.226 18.657 29.293 19.346 29.293 20.065C29.293 25.689 25.529 29.688 19.844 29.688C18.5512 29.6884 17.2709 29.434 16.0764 28.9395C14.8819 28.4449 13.7965 27.7198 12.8824 26.8056C11.9682 25.8915 11.2431 24.8061 10.7485 23.6116C10.254 22.4171 9.99961 21.1368 10 19.844C9.99961 18.5512 10.254 17.2709 10.7485 16.0764C11.2431 14.8819 11.9682 13.7965 12.8824 12.8824C13.7965 11.9682 14.8819 11.2431 16.0764 10.7485C17.2709 10.254 18.5512 9.99961 19.844 10C22.502 10 24.723 10.978 26.427 12.566L23.652 15.341V15.334C22.619 14.35 21.308 13.845 19.844 13.845C16.596 13.845 13.956 16.589 13.956 19.838C13.956 23.086 16.596 25.836 19.844 25.836C22.791 25.836 24.797 24.151 25.209 21.837H19.844V17.998H29.104H29.103Z" fill="#ab6d23"/>
</svg>
