<svg width="25" height="25" viewBox="0 0 25 25" fill="none" xmlns="http://www.w3.org/2000/svg">
<rect width="25" height="25" rx="12.5" fill="#ab6d23"/>
<path d="M11.4147 15.7344C11.3314 15.7344 11.2532 15.7212 11.1803 15.695C11.1074 15.6692 11.0397 15.625 10.9772 15.5625L8.28969 12.875C8.17511 12.7604 8.12031 12.6119 8.12531 12.4294C8.13073 12.2473 8.19073 12.099 8.30531 11.9844C8.4199 11.8698 8.56573 11.8125 8.74281 11.8125C8.9199 11.8125 9.06573 11.8698 9.18031 11.9844L11.4147 14.2188L16.7116 8.92188C16.8261 8.80729 16.9747 8.75 17.1572 8.75C17.3393 8.75 17.4876 8.80729 17.6022 8.92188C17.7168 9.03646 17.7741 9.18479 17.7741 9.36687C17.7741 9.54937 17.7168 9.69792 17.6022 9.8125L11.8522 15.5625C11.7897 15.625 11.722 15.6692 11.6491 15.695C11.5761 15.7212 11.498 15.7344 11.4147 15.7344Z" fill="white"/>
</svg>
