<svg width="40" height="40" viewBox="0 0 40 40" fill="none" xmlns="http://www.w3.org/2000/svg">
<rect width="40" height="40" rx="5" fill="#ab6d23"/>
<path d="M15.4365 29C14.2418 29 13.1229 28.4903 12.3154 27.6775C10.7493 26.1016 10.3133 23.351 12.5085 21.1423L21.515 12.0778C22.4278 11.1594 23.5892 10.804 24.7007 11.1043C25.7937 11.3982 26.6881 12.2991 26.981 13.3984C27.2785 14.5189 26.9265 15.688 26.0145 16.6064L17.4007 25.2759C16.9092 25.7709 16.353 26.0639 15.7949 26.1227C15.2415 26.1815 14.7139 26.0033 14.3444 25.6314C13.6754 24.9554 13.5793 23.6871 14.6936 22.5667L20.7435 16.4778C20.992 16.228 21.3949 16.228 21.6434 16.4778C21.892 16.7276 21.892 17.1335 21.6434 17.3833L15.5926 23.4731C15.0696 23.9985 15.0216 24.5008 15.2443 24.7258C15.3422 24.8232 15.49 24.8682 15.661 24.8489C15.9224 24.8223 16.2209 24.6505 16.5008 24.3704L25.1146 15.7017C25.7059 15.1066 25.9323 14.4068 25.7521 13.7318C25.6621 13.4017 25.4878 13.1003 25.2461 12.8569C25.0044 12.6135 24.7036 12.4362 24.3727 12.3423C23.7019 12.1614 23.0053 12.39 22.414 12.9852L13.4075 22.0496C11.7296 23.7386 12.1315 25.6828 13.2144 26.7729C14.2982 27.863 16.2283 28.269 17.907 26.5782L26.9135 17.5137C26.9723 17.4544 27.0423 17.4072 27.1195 17.375C27.1968 17.3428 27.2797 17.3263 27.3635 17.3263C27.4472 17.3263 27.5302 17.3428 27.6074 17.375C27.6847 17.4072 27.7547 17.4544 27.8134 17.5137C27.933 17.6346 28 17.7974 28 17.9669C28 18.1365 27.933 18.2993 27.8134 18.4202L18.807 27.4847C17.7454 28.5518 16.5563 29 15.4365 29Z" fill="white"/>
</svg>
