<svg width="24" height="24" viewBox="0 0 24 24" fill="none" xmlns="http://www.w3.org/2000/svg">
<rect x="0.5" y="0.5" width="23" height="23" rx="3.5" fill="#ab6d23" stroke="#ab6d23"/>
<path fill-rule="evenodd" clip-rule="evenodd" d="M10 6C10.1028 6.00004 10.203 6.03175 10.2871 6.09079C10.3712 6.14984 10.4351 6.23336 10.47 6.33L14 16.036L15.53 11.828C15.5653 11.7317 15.6293 11.6486 15.7133 11.59C15.7974 11.5313 15.8975 11.4999 16 11.5H19.5C19.6326 11.5 19.7598 11.5527 19.8536 11.6464C19.9473 11.7402 20 11.8674 20 12C20 12.1326 19.9473 12.2598 19.8536 12.3536C19.7598 12.4473 19.6326 12.5 19.5 12.5H16.35L14.47 17.67C14.435 17.7665 14.3711 17.8499 14.287 17.9089C14.2029 17.9678 14.1027 17.9994 14 17.9994C13.8973 17.9994 13.7971 17.9678 13.713 17.9089C13.6289 17.8499 13.565 17.7665 13.53 17.67L10 7.964L8.47 12.171C8.4349 12.2674 8.37096 12.3508 8.28688 12.4096C8.2028 12.4685 8.10264 12.5 8 12.5H4.5C4.36739 12.5 4.24021 12.4473 4.14645 12.3536C4.05268 12.2598 4 12.1326 4 12C4 11.8674 4.05268 11.7402 4.14645 11.6464C4.24021 11.5527 4.36739 11.5 4.5 11.5H7.65L9.53 6.33C9.56494 6.23336 9.6288 6.14984 9.7129 6.09079C9.79699 6.03175 9.89724 6.00004 10 6Z" fill="white" stroke="white"/>
</svg>
