<svg width="24" height="24" viewBox="0 0 24 24" fill="none" xmlns="http://www.w3.org/2000/svg">
<path d="M24 2.57143V21.4286C24 22.8482 22.8482 24 21.4286 24H8.27143C8.79643 23.1214 9.47143 21.8571 9.73929 20.8232C9.9 20.2071 10.5589 17.6946 10.5589 17.6946C10.9875 18.5143 12.2411 19.2054 13.575 19.2054C17.5446 19.2054 20.4 15.5571 20.4 11.025C20.4 6.68036 16.8536 3.42857 12.2893 3.42857C6.61071 3.42857 3.6 7.2375 3.6 11.3893C3.6 13.3179 4.62857 15.7179 6.26786 16.4839C6.51964 16.6018 6.64821 16.5482 6.70714 16.3071C6.75 16.125 6.975 15.2304 7.07143 14.8179C7.10357 14.6839 7.0875 14.5714 6.98036 14.4429C6.43929 13.7839 6 12.5732 6 11.4429C6 8.53929 8.19643 5.73214 11.9411 5.73214C15.1714 5.73214 17.4375 7.93393 17.4375 11.0839C17.4375 14.6411 15.6429 17.1054 13.3018 17.1054C12.0107 17.1054 11.0464 16.0393 11.3518 14.7268C11.7214 13.1625 12.4393 11.475 12.4393 10.3446C12.4393 7.50536 8.39464 7.89643 8.39464 11.6839C8.39464 12.8464 8.78571 13.6393 8.78571 13.6393C7.10357 20.7536 6.85179 20.8446 7.2 23.9571L7.31786 24H2.57143C1.15179 24 0 22.8482 0 21.4286V2.57143C0 1.15179 1.15179 0 2.57143 0H21.4286C22.8482 0 24 1.15179 24 2.57143Z" fill="white"/>
</svg>
