<svg width="12" height="9" viewBox="0 0 12 9" fill="none" xmlns="http://www.w3.org/2000/svg">
<path d="M1.32628 0H10.6737C11.5556 0 12 0.4425 12 1.3425V7.6575C12 8.55 11.5556 9 10.6737 9H1.32628C0.444444 9 0 8.55 0 7.6575V1.3425C0 0.4425 0.444444 0 1.32628 0ZM5.99647 6.45L10.7513 2.3025C10.9206 2.1525 11.0547 1.8075 10.843 1.5C10.6384 1.1925 10.2646 1.185 10.0176 1.3725L5.99647 4.2675L1.98236 1.3725C1.73545 1.185 1.36155 1.1925 1.15697 1.5C0.945326 1.8075 1.07937 2.1525 1.24868 2.3025L5.99647 6.45Z" fill="white"/>
</svg>
