<svg width="12" height="19" viewBox="0 0 12 19" fill="none" xmlns="http://www.w3.org/2000/svg">
<path d="M10.6667 0H1.33333C0.979711 0 0.640573 0.142984 0.390525 0.397498C0.140476 0.652012 0 0.997206 0 1.35714V17.6429C0 18.0028 0.140476 18.348 0.390525 18.6025C0.640573 18.857 0.979711 19 1.33333 19H10.6667C11.0203 19 11.3594 18.857 11.6095 18.6025C11.8595 18.348 12 18.0028 12 17.6429V1.35714C12 0.997206 11.8595 0.652012 11.6095 0.397498C11.3594 0.142984 11.0203 0 10.6667 0ZM6.66667 17.6429H5.33333V16.2857H6.66667V17.6429ZM1.33333 14.9286V1.35714H10.6667V14.9286H1.33333Z" fill="white"/>
</svg>
