<svg width="25" height="25" viewBox="0 0 25 25" fill="none" xmlns="http://www.w3.org/2000/svg">
<rect x="0.5" y="0.5" width="24" height="24" rx="12" fill="white" stroke="#ab6d23"/>
<path d="M12.5001 14.5002C13.6047 14.5002 14.5001 13.6048 14.5001 12.5002C14.5001 11.3956 13.6047 10.5001 12.5001 10.5001C11.3955 10.5001 10.5 11.3956 10.5 12.5002C10.5 13.6048 11.3955 14.5002 12.5001 14.5002Z" fill="#ab6d23"/>
<path d="M19.9702 12.3302C19.3821 10.8089 18.3612 9.49338 17.0335 8.54609C15.7059 7.59879 14.1298 7.06129 12.5 7C10.8702 7.06129 9.2941 7.59879 7.96647 8.54609C6.63884 9.49338 5.61789 10.8089 5.02979 12.3302C4.99007 12.44 4.99007 12.5603 5.02979 12.6702C5.61789 14.1914 6.63884 15.5069 7.96647 16.4542C9.2941 17.4015 10.8702 17.939 12.5 18.0003C14.1298 17.939 15.7059 17.4015 17.0335 16.4542C18.3612 15.5069 19.3821 14.1914 19.9702 12.6702C20.0099 12.5603 20.0099 12.44 19.9702 12.3302ZM12.5 15.7502C11.8572 15.7502 11.2288 15.5596 10.6943 15.2025C10.1599 14.8454 9.7433 14.3378 9.49731 13.7439C9.25131 13.15 9.18695 12.4966 9.31236 11.8661C9.43776 11.2356 9.7473 10.6565 10.2018 10.202C10.6564 9.74746 11.2355 9.43792 11.8659 9.31251C12.4964 9.18711 13.1499 9.25147 13.7438 9.49746C14.3376 9.74345 14.8452 10.16 15.2024 10.6945C15.5595 11.229 15.7501 11.8573 15.7501 12.5002C15.7488 13.3617 15.4059 14.1876 14.7967 14.7969C14.1875 15.4061 13.3616 15.7489 12.5 15.7502Z" fill="#ab6d23"/>
</svg>
