<svg width="40" height="40" viewBox="0 0 40 40" fill="none" xmlns="http://www.w3.org/2000/svg">
<rect x="0.5" y="0.5" width="39" height="39" rx="19.5" fill="white" stroke="#ab6d23"/>
<path d="M16.6963 25.5653C16.883 25.456 17.087 25.3493 17.3083 25.248C17.1213 25.5267 16.9211 25.7964 16.7083 26.056C16.335 26.5053 16.0443 26.744 15.8616 26.8186C15.8465 26.8251 15.8309 26.8304 15.815 26.8346C15.8016 26.8162 15.79 26.7965 15.7803 26.776C15.7056 26.6293 15.7083 26.488 15.8336 26.296C15.975 26.076 16.259 25.824 16.6963 25.5653ZM19.9696 23.3693C19.811 23.4026 19.6536 23.436 19.495 23.4733C19.73 23.0128 19.9523 22.546 20.1616 22.0733C20.3724 22.4639 20.5992 22.8455 20.8416 23.2173C20.5523 23.26 20.2603 23.3106 19.9696 23.3693ZM23.3363 24.6213C23.1292 24.4543 22.9353 24.2715 22.7563 24.0746C23.0603 24.0813 23.335 24.104 23.5723 24.1466C23.995 24.2226 24.1936 24.3426 24.263 24.4253C24.2848 24.4484 24.2972 24.4789 24.2976 24.5106C24.2929 24.6047 24.2655 24.6962 24.2176 24.7773C24.1907 24.8423 24.1476 24.8992 24.0923 24.9426C24.0648 24.9595 24.0323 24.9666 24.0003 24.9626C23.8803 24.9586 23.6563 24.8746 23.3363 24.6213ZM20.3696 18.2933C20.3163 18.6186 20.2256 18.992 20.103 19.3986C20.0578 19.2464 20.0182 19.0925 19.9843 18.9373C19.883 18.4666 19.8683 18.0973 19.923 17.8413C19.9736 17.6053 20.0696 17.5106 20.1843 17.464C20.2458 17.4369 20.3109 17.4189 20.3776 17.4106C20.395 17.4506 20.415 17.5333 20.4203 17.6746C20.427 17.8373 20.411 18.044 20.3696 18.2946V18.2933Z" fill="#ab6d23"/>
<path fill-rule="evenodd" clip-rule="evenodd" d="M14.6667 9H21.724C22.0776 9.00008 22.4167 9.1406 22.6667 9.39067L27.6093 14.3333C27.8594 14.5833 27.9999 14.9224 28 15.276V27.6667C28 28.3739 27.719 29.0522 27.219 29.5523C26.7189 30.0524 26.0406 30.3333 25.3333 30.3333H14.6667C13.9594 30.3333 13.2811 30.0524 12.781 29.5523C12.281 29.0522 12 28.3739 12 27.6667V11.6667C12 10.9594 12.281 10.2811 12.781 9.78105C13.2811 9.28095 13.9594 9 14.6667 9V9ZM22 11V13.6667C22 14.0203 22.1405 14.3594 22.3905 14.6095C22.6406 14.8595 22.9797 15 23.3333 15H26L22 11ZM14.8867 27.224C15.0067 27.464 15.1933 27.6813 15.4707 27.7827C15.7467 27.8827 16.02 27.836 16.244 27.7427C16.668 27.5693 17.0907 27.1613 17.4787 26.6947C17.9227 26.16 18.3893 25.4587 18.84 24.6813C19.71 24.4235 20.601 24.2423 21.5027 24.14C21.9027 24.6507 22.316 25.0907 22.716 25.4067C23.0893 25.7 23.52 25.944 23.9613 25.9627C24.2017 25.9746 24.4397 25.9102 24.6413 25.7787C24.848 25.644 25.0013 25.4493 25.1133 25.224C25.2333 24.9827 25.3067 24.7307 25.2973 24.4733C25.2889 24.2196 25.1949 23.9762 25.0307 23.7827C24.7293 23.4227 24.236 23.2493 23.7507 23.1627C23.1619 23.0715 22.5646 23.0491 21.9707 23.096C21.4691 22.387 21.0319 21.6347 20.664 20.848C20.9973 19.968 21.2467 19.136 21.3573 18.456C21.4053 18.1653 21.4307 17.888 21.4213 17.6373C21.4197 17.3885 21.3618 17.1433 21.252 16.92C21.1887 16.7968 21.0989 16.6892 20.9888 16.605C20.8788 16.5208 20.7515 16.4622 20.616 16.4333C20.3467 16.376 20.0693 16.4333 19.8147 16.536C19.312 16.736 19.0467 17.1627 18.9467 17.6333C18.8493 18.0867 18.8933 18.6147 19.008 19.148C19.1253 19.6893 19.3253 20.2787 19.5813 20.8747C19.1718 21.8931 18.6989 22.8848 18.1653 23.844C17.4782 24.0602 16.8158 24.3485 16.1893 24.704C15.696 24.9973 15.2573 25.344 14.9933 25.7533C14.7133 26.188 14.6267 26.7053 14.8867 27.224Z" fill="#ab6d23"/>
</svg>
