<svg width="25" height="25" viewBox="0 0 25 25" fill="none" xmlns="http://www.w3.org/2000/svg">
<rect width="25" height="25" rx="12.5" fill="#ab6d23"/>
<path d="M11.5027 10.0167H12.4906V14.3412C12.4906 14.3974 12.5388 14.4434 12.5976 14.4434H13.3997C13.4586 14.4434 13.5067 14.3974 13.5067 14.3412V10.0167H14.4973C14.5869 10.0167 14.6364 9.91831 14.5816 9.85184L13.0842 8.03924C13.0742 8.02701 13.0614 8.01713 13.0468 8.01033C13.0323 8.00353 13.0162 8 13 8C12.9838 8 12.9677 8.00353 12.9532 8.01033C12.9386 8.01713 12.9258 8.02701 12.9158 8.03924L11.4184 9.85056C11.3636 9.91831 11.4131 10.0167 11.5027 10.0167ZM17.893 13.9577H17.0909C17.0321 13.9577 16.984 14.0037 16.984 14.0599V16.0285H9.01604V14.0599C9.01604 14.0037 8.96791 13.9577 8.90909 13.9577H8.10695C8.04813 13.9577 8 14.0037 8 14.0599V16.5909C8 16.8172 8.19118 17 8.42781 17H17.5722C17.8088 17 18 16.8172 18 16.5909V14.0599C18 14.0037 17.9519 13.9577 17.893 13.9577Z" fill="white"/>
</svg>
