<svg width="25" height="25" viewBox="0 0 25 25" fill="none" xmlns="http://www.w3.org/2000/svg">
<rect width="25" height="25" rx="12.5" fill="#D92C2C"/>
<path fill-rule="evenodd" clip-rule="evenodd" d="M15.625 9.375C15.6941 9.44407 15.7329 9.53774 15.7329 9.63542C15.7329 9.7331 15.6941 9.82677 15.625 9.89584L13.0208 12.5L15.625 15.1042C15.6941 15.1732 15.7329 15.2669 15.7329 15.3646C15.7329 15.4623 15.6941 15.5559 15.625 15.625C15.5559 15.6941 15.4623 15.7329 15.3646 15.7329C15.2669 15.7329 15.1732 15.6941 15.1042 15.625L12.5 13.0208L9.89583 15.625C9.82676 15.6941 9.73309 15.7329 9.63541 15.7329C9.53774 15.7329 9.44406 15.6941 9.375 15.625C9.30593 15.5559 9.26713 15.4623 9.26713 15.3646C9.26713 15.2669 9.30593 15.1732 9.375 15.1042L11.9792 12.5L9.375 9.89584C9.30593 9.82677 9.26713 9.7331 9.26713 9.63542C9.26713 9.53774 9.30593 9.44407 9.375 9.375C9.44406 9.30594 9.53774 9.26713 9.63541 9.26714C9.73309 9.26714 9.82676 9.30594 9.89583 9.375L12.5 11.9792L15.1042 9.375C15.1732 9.30594 15.2669 9.26714 15.3646 9.26714C15.4623 9.26713 15.5559 9.30594 15.625 9.375Z" fill="white" stroke="white"/>
</svg>
