<svg width="23" height="23" viewBox="0 0 23 23" fill="none" xmlns="http://www.w3.org/2000/svg">
<path fill-rule="evenodd" clip-rule="evenodd" d="M11.5 0C5.14886 0 0 5.14886 0 11.5C0 17.8511 5.14886 23 11.5 23C17.8511 23 23 17.8511 23 11.5C23 5.14886 17.8511 0 11.5 0ZM7.31818 10.4545C7.04091 10.4545 6.77499 10.5647 6.57893 10.7608C6.38287 10.9568 6.27273 11.2227 6.27273 11.5C6.27273 11.7773 6.38287 12.0432 6.57893 12.2392C6.77499 12.4353 7.04091 12.5455 7.31818 12.5455H15.6818C15.9591 12.5455 16.225 12.4353 16.4211 12.2392C16.6171 12.0432 16.7273 11.7773 16.7273 11.5C16.7273 11.2227 16.6171 10.9568 16.4211 10.7608C16.225 10.5647 15.9591 10.4545 15.6818 10.4545H7.31818Z" fill="#D92C2C"/>
</svg>
