<svg width="40" height="40" viewBox="0 0 40 40" fill="none" xmlns="http://www.w3.org/2000/svg">
<rect width="40" height="40" rx="5" fill="#ab6d23"/>
<path d="M24.262 25.5715L19.0713 20.3807V11.6429H20.9284V19.61L25.5713 24.2622L24.262 25.5715Z" fill="white"/>
<path d="M20 7C18.2682 7.00025 16.554 7.34801 14.959 8.02269C13.364 8.69738 11.9206 9.68527 10.7143 10.9279V7H8.85714V14.4286H16.2857V12.5714H11.7171C13.4592 10.6356 15.8242 9.37113 18.4015 8.99755C20.9788 8.62396 23.6055 9.16489 25.8255 10.5264C28.0455 11.8879 29.7184 13.9839 30.5539 16.4505C31.3893 18.9171 31.3344 21.5984 30.3988 24.0287C29.4631 26.459 27.7057 28.4848 25.4319 29.7543C23.1581 31.0239 20.5114 31.4568 17.9516 30.9781C15.3917 30.4994 13.0804 29.1391 11.4191 27.1337C9.75771 25.1282 8.85126 22.6042 8.85714 20H7C7 22.5712 7.76244 25.0846 9.19089 27.2224C10.6194 29.3602 12.6497 31.0265 15.0251 32.0104C17.4006 32.9944 20.0144 33.2518 22.5362 32.7502C25.0579 32.2486 27.3743 31.0105 29.1924 29.1924C31.0105 27.3743 32.2486 25.0579 32.7502 22.5362C33.2518 20.0144 32.9944 17.4006 32.0104 15.0251C31.0265 12.6497 29.3602 10.6194 27.2224 9.19089C25.0846 7.76244 22.5712 7 20 7Z" fill="white"/>
</svg>
