<svg width="12" height="12" viewBox="0 0 12 12" fill="none" xmlns="http://www.w3.org/2000/svg">
<path fill-rule="evenodd" clip-rule="evenodd" d="M8.33375 7.33375H7.80708L7.62042 7.15375C8.42042 6.22042 8.83375 4.94708 8.60708 3.59375C8.29375 1.74042 6.74708 0.260417 4.88042 0.0337504C2.06042 -0.312916 -0.312916 2.06042 0.0337504 4.88042C0.260417 6.74708 1.74042 8.29375 3.59375 8.60708C4.94708 8.83375 6.22042 8.42042 7.15375 7.62042L7.33375 7.80708V8.33375L10.1671 11.1671C10.4404 11.4404 10.8871 11.4404 11.1604 11.1671C11.4338 10.8938 11.4338 10.4471 11.1604 10.1737L8.33375 7.33375ZM4.33375 7.33375C2.67375 7.33375 1.33375 5.99375 1.33375 4.33375C1.33375 2.67375 2.67375 1.33375 4.33375 1.33375C5.99375 1.33375 7.33375 2.67375 7.33375 4.33375C7.33375 5.99375 5.99375 7.33375 4.33375 7.33375Z" fill="#ab6d23"/>
</svg>
