<svg width="14" height="7" viewBox="0 0 14 7" fill="none" xmlns="http://www.w3.org/2000/svg">
<path d="M0.971748 6.84306L7.00062 1.26413L13.0295 6.84306C13.1372 6.94294 13.2818 6.99886 13.4324 6.99886C13.583 6.99886 13.7275 6.94294 13.8353 6.84306C13.8874 6.79455 13.9289 6.73665 13.9571 6.67274C13.9854 6.60884 14 6.54022 14 6.4709C14 6.40159 13.9854 6.33297 13.9571 6.26906C13.9289 6.20516 13.8874 6.14726 13.8353 6.09875L7.4216 0.162548C7.30897 0.0583283 7.1579 -3.55519e-07 7.00062 -3.41769e-07C6.84333 -3.28018e-07 6.69227 0.0583283 6.57963 0.162548L0.165969 6.0976C0.113444 6.14615 0.0716972 6.20419 0.0431918 6.26831C0.0146865 6.33243 9.01335e-07 6.40131 9.07419e-07 6.4709C9.13503e-07 6.5405 0.0146866 6.60938 0.0431919 6.6735C0.0716972 6.73761 0.113444 6.79566 0.165969 6.84421C0.273685 6.94409 0.418286 7 0.568859 7C0.719433 7 0.864033 6.94409 0.971748 6.84421L0.971748 6.84306Z" fill="white"/>
</svg>
