<svg width="18" height="9" viewBox="0 0 18 9" fill="none" xmlns="http://www.w3.org/2000/svg">
<path d="M16.7506 0.201779L8.99921 7.37468L1.2478 0.201779C1.10931 0.0733642 0.923396 0.00147216 0.729802 0.00147216C0.536207 0.00147216 0.350293 0.0733642 0.211801 0.201779C0.144743 0.264151 0.0914701 0.338597 0.0551014 0.420759C0.0187328 0.502921 0 0.591146 0 0.680267C0 0.769388 0.0187328 0.857613 0.0551014 0.939775C0.0914701 1.02194 0.144743 1.09638 0.211801 1.15875L8.45794 8.79101C8.60276 8.92501 8.79698 9 8.99921 9C9.20143 9 9.39566 8.92501 9.54047 8.79101L17.7866 1.16023C17.8541 1.09781 17.9078 1.02318 17.9445 0.940745C17.9811 0.858311 18 0.769743 18 0.680267C18 0.590792 17.9811 0.502222 17.9445 0.419788C17.9078 0.337354 17.8541 0.262725 17.7866 0.200306C17.6481 0.0718913 17.4622 0 17.2686 0C17.075 0 16.8891 0.0718913 16.7506 0.200306V0.201779Z" fill="#b0b0b0"/>
</svg>
