<svg width="6" height="10" viewBox="0 0 6 10" fill="none" xmlns="http://www.w3.org/2000/svg">
<path d="M0.352334 0.694106L4.33728 5.00044L0.352334 9.30678C0.280992 9.38372 0.241052 9.487 0.241052 9.59455C0.241052 9.70211 0.280992 9.80539 0.352334 9.88233C0.386985 9.91959 0.428344 9.94918 0.473989 9.96939C0.519635 9.98959 0.568649 10 0.618161 10C0.667672 10 0.716686 9.98959 0.762331 9.96939C0.807977 9.94918 0.849336 9.91959 0.883987 9.88233L5.12413 5.30114C5.19857 5.22069 5.24023 5.11279 5.24023 5.00044C5.24023 4.88809 5.19857 4.78019 5.12413 4.69974L0.884805 0.118549C0.850128 0.0810318 0.808667 0.0512123 0.76287 0.0308513C0.717074 0.0104894 0.667869 -1.86925e-08 0.61816 -1.65197e-08C0.568451 -1.43468e-08 0.519246 0.0104895 0.47345 0.0308514C0.427653 0.0512123 0.386192 0.0810318 0.351515 0.118549C0.280174 0.195489 0.240234 0.298775 0.240234 0.406328C0.240234 0.513881 0.280174 0.617166 0.351515 0.694106L0.352334 0.694106Z" fill="white"/>
</svg>
