<svg width="40" height="40" viewBox="0 0 40 40" fill="none" xmlns="http://www.w3.org/2000/svg">
<circle cx="20" cy="20" r="20" fill="#ab6d23"/>
<path fill-rule="evenodd" clip-rule="evenodd" d="M15.5003 13C15.6329 13 15.7601 13.0527 15.8538 13.1464C15.9476 13.2402 16.0003 13.3674 16.0003 13.5V25.2921L19.1461 22.1454C19.2399 22.0515 19.3673 21.9987 19.5 21.9987C19.6328 21.9987 19.7601 22.0515 19.854 22.1454C19.9479 22.2392 20.0006 22.3666 20.0006 22.4993C20.0006 22.6321 19.9479 22.7594 19.854 22.8533L15.8543 26.853C15.8079 26.8996 15.7527 26.9365 15.6919 26.9617C15.6312 26.9869 15.5661 26.9999 15.5003 26.9999C15.4346 26.9999 15.3694 26.9869 15.3087 26.9617C15.248 26.9365 15.1928 26.8996 15.1463 26.853L11.1466 22.8533C11.0527 22.7594 11 22.6321 11 22.4993C11 22.3666 11.0527 22.2392 11.1466 22.1454C11.2405 22.0515 11.3678 21.9987 11.5006 21.9987C11.6334 21.9987 11.7607 22.0515 11.8546 22.1454L15.0004 25.2921V13.5C15.0004 13.3674 15.053 13.2402 15.1468 13.1464C15.2406 13.0527 15.3677 13 15.5003 13Z" fill="white"/>
<path fill-rule="evenodd" clip-rule="evenodd" d="M24.2985 27C24.1659 27 24.0387 26.9473 23.945 26.8536C23.8512 26.7598 23.7985 26.6326 23.7985 26.5L23.7985 14.7079L20.6528 17.8546C20.5589 17.9485 20.4316 18.0013 20.2988 18.0013C20.166 18.0013 20.0387 17.9485 19.9448 17.8546C19.8509 17.7608 19.7982 17.6334 19.7982 17.5007C19.7982 17.3679 19.8509 17.2406 19.9448 17.1467L23.9445 13.147C23.991 13.1004 24.0461 13.0635 24.1069 13.0383C24.1676 13.0131 24.2327 13.0001 24.2985 13.0001C24.3643 13.0001 24.4294 13.0131 24.4901 13.0383C24.5509 13.0635 24.606 13.1004 24.6525 13.147L28.6522 17.1467C28.7461 17.2406 28.7988 17.3679 28.7988 17.5007C28.7988 17.6334 28.7461 17.7608 28.6522 17.8546C28.5583 17.9485 28.431 18.0013 28.2982 18.0013C28.1655 18.0013 28.0381 17.9485 27.9443 17.8546L24.7985 14.7079L24.7985 26.5C24.7985 26.6326 24.7458 26.7598 24.652 26.8536C24.5583 26.9473 24.4311 27 24.2985 27Z" fill="white"/>
</svg>
