<svg width="20" height="20" viewBox="0 0 20 20" fill="none" xmlns="http://www.w3.org/2000/svg">
<circle cx="10" cy="10" r="10" fill="#ab6d23"/>
<path d="M8.1121 5.69411L12.097 10.0004L8.1121 14.3068C8.04076 14.3837 8.00082 14.487 8.00082 14.5946C8.00082 14.7021 8.04076 14.8054 8.1121 14.8823C8.14675 14.9196 8.18811 14.9492 8.23375 14.9694C8.2794 14.9896 8.32841 15 8.37793 15C8.42744 15 8.47645 14.9896 8.5221 14.9694C8.56774 14.9492 8.6091 14.9196 8.64375 14.8823L12.8839 10.3011C12.9583 10.2207 13 10.1128 13 10.0004C13 9.88809 12.9583 9.78019 12.8839 9.69974L8.64457 5.11855C8.60989 5.08103 8.56843 5.05121 8.52264 5.03085C8.47684 5.01049 8.42763 5 8.37793 5C8.32822 5 8.27901 5.01049 8.23322 5.03085C8.18742 5.05121 8.14596 5.08103 8.11128 5.11855C8.03994 5.19549 8 5.29877 8 5.40633C8 5.51388 8.03994 5.61717 8.11128 5.69411L8.1121 5.69411Z" fill="white"/>
</svg>
