<svg width="89" height="62" viewBox="0 0 89 62" fill="none" xmlns="http://www.w3.org/2000/svg">
<path opacity="0.7" d="M86.0622 9.65142C85.5574 7.78596 84.5727 6.08527 83.2062 4.71872C81.8397 3.35217 80.1391 2.36743 78.2737 1.86256C71.4443 0 43.9583 0 43.9583 0C43.9583 0 16.4709 0.0563785 9.64151 1.91894C7.77603 2.42384 6.07537 3.40863 4.70887 4.77524C3.34238 6.14186 2.35773 7.84261 1.853 9.70814C-0.212729 21.8426 -1.01406 40.3328 1.90972 51.9819C2.41451 53.8473 3.39917 55.548 4.76567 56.9146C6.13216 58.2811 7.8328 59.2659 9.69824 59.7707C16.5276 61.6333 44.0143 61.6333 44.0143 61.6333C44.0143 61.6333 71.5007 61.6333 78.3297 59.7707C80.1952 59.2659 81.8959 58.2812 83.2625 56.9146C84.629 55.5481 85.6137 53.8474 86.1186 51.9819C88.2974 39.8302 88.9688 21.3514 86.0622 9.65142Z" fill="black"/>
<path d="M35.209 44.0235L58.0107 30.8164L35.209 17.6094V44.0235Z" fill="white"/>
</svg>
